<?xml version="1.0" standalone="no"?>
<!DOCTYPE svg PUBLIC "-//W3C//DTD SVG 20010904//EN"
 "http://www.w3.org/TR/2001/REC-SVG-20010904/DTD/svg10.dtd">
<svg version="1.0" xmlns="http://www.w3.org/2000/svg"
 width="1566.000000pt" height="751.000000pt" viewBox="0 0 1566.000000 751.000000"
 preserveAspectRatio="xMidYMid meet">

<g transform="translate(0.000000,751.000000) scale(0.100000,-0.100000)"
fill="#000000" stroke="none">
<path d="M4021 6063 c-1483 -1069 -1948 -1409 -1934 -1414 10 -3 108 -10 218
-13 l200 -7 1724 1388 c1339 1077 1728 1395 1738 1421 7 17 12 32 10 32 -2 0
-882 -633 -1956 -1407z"/>
<path d="M10125 7438 c4 -13 26 -42 48 -65 23 -23 704 -650 1512 -1393 l1470
-1352 170 7 c94 4 179 11 189 15 15 5 -325 290 -1683 1408 -935 771 -1704
1402 -1707 1402 -3 0 -2 -10 1 -22z"/>
<path d="M6576 7235 c-252 -96 -462 -179 -466 -184 -8 -14 -95 -560 -89 -564
2 -2 212 -71 467 -154 l463 -151 502 176 c276 96 505 178 508 181 4 3 9 139
13 301 l7 296 -453 137 c-249 75 -462 137 -473 136 -11 -1 -227 -79 -479 -174z"/>
<path d="M9460 6278 c-272 -88 -499 -163 -503 -168 -5 -4 -5 -149 -1 -322 l7
-315 501 -146 501 -146 485 169 c266 94 485 170 487 170 12 0 -69 596 -83 610
-11 11 -871 310 -887 309 -7 0 -235 -73 -507 -161z"/>
<path d="M5485 6283 c-264 -80 -483 -148 -487 -152 -7 -6 -120 -542 -116 -547
3 -2 804 -352 893 -389 28 -12 64 -1 555 170 425 148 526 186 528 201 8 60 60
559 58 562 -6 5 -929 302 -940 301 -6 0 -227 -66 -491 -146z"/>
<path d="M10488 5298 l-488 -172 0 -316 0 -317 508 -188 c279 -103 512 -188
517 -188 9 0 985 362 994 369 6 5 -69 638 -77 645 -6 7 -959 340 -965 338 -1
0 -221 -77 -489 -171z"/>
<path d="M8405 5257 l-530 -162 -3 -316 -2 -317 28 -10 c15 -5 237 -84 493
-176 l465 -167 500 177 c274 97 518 183 542 191 l42 15 -2 316 -3 317 -500
147 c-275 81 -500 147 -500 147 0 0 -238 -73 -530 -162z"/>
<path d="M1965 3758 c-6 -17 -545 -2176 -545 -2183 0 -3 67 -5 148 -5 l148 0
38 168 c21 92 47 206 58 255 l20 87 287 0 287 0 59 -255 60 -255 151 0 152 0
-170 673 c-94 369 -218 863 -277 1097 l-108 425 -152 3 c-116 2 -152 0 -156
-10z m165 -521 c0 -11 115 -529 144 -649 20 -80 36 -149 36 -152 0 -7 -375 -8
-382 -1 -3 3 14 83 38 178 24 95 64 274 90 400 33 159 51 227 61 227 7 0 13
-1 13 -3z"/>
<path d="M2980 2670 l0 -1100 130 0 130 0 0 847 c0 468 4 843 9 837 4 -5 65
-376 135 -824 69 -448 129 -825 131 -837 5 -22 9 -23 139 -23 119 0 134 2 138
18 3 9 60 387 129 839 68 453 127 823 132 823 4 0 7 -179 7 -397 0 -219 3
-597 7 -840 l6 -443 135 0 135 0 -6 197 c-4 108 -7 603 -7 1100 l0 903 -210 0
c-115 0 -210 -3 -210 -6 0 -4 -56 -337 -125 -741 -69 -404 -125 -740 -125
-745 0 -50 -26 95 -130 738 -66 406 -120 742 -120 747 0 4 -97 7 -215 7 l-215
0 0 -1100z"/>
<path d="M4624 2953 c4 -450 12 -843 17 -874 18 -106 76 -259 124 -330 61 -90
112 -134 204 -178 l76 -36 140 0 c135 0 142 1 200 30 78 38 202 161 238 236
35 70 85 245 91 318 3 31 8 415 12 854 l6 797 -141 0 -141 0 0 -768 0 -767
-25 -90 c-13 -49 -37 -108 -52 -130 -39 -56 -118 -95 -195 -95 -69 0 -111 16
-162 60 -47 42 -70 88 -98 192 -21 81 -22 100 -25 841 l-4 757 -136 0 -136 0
7 -817z"/>
<path d="M8097 3133 c3 -351 8 -739 12 -863 8 -223 8 -226 45 -337 59 -179
157 -301 293 -366 67 -31 71 -32 213 -32 l145 0 65 35 c73 39 176 138 216 207
15 25 43 95 62 157 34 111 34 111 43 386 5 151 10 539 11 863 l3 587 -137 0
-138 0 0 -744 c0 -455 -4 -764 -10 -796 -42 -222 -117 -309 -266 -310 -127 0
-208 72 -255 227 l-23 78 -4 773 -3 772 -138 0 -138 0 4 -637z"/>
<path d="M9520 2671 l0 -1101 128 0 129 0 6 278 c4 152 7 359 7 460 l0 182 94
0 94 0 45 -52 c78 -93 111 -156 252 -493 76 -181 142 -340 148 -352 10 -22 14
-23 174 -23 89 0 163 3 163 8 0 17 -301 728 -318 751 -10 14 -48 69 -85 122
l-67 96 66 28 c74 32 153 98 189 160 14 23 43 90 65 148 l40 106 0 148 c0 178
-19 266 -83 386 -54 104 -118 169 -204 210 l-68 32 -387 3 -388 3 0 -1100z
m688 714 c63 -19 115 -62 135 -113 27 -66 32 -189 11 -262 -22 -78 -78 -142
-139 -159 -23 -6 -124 -11 -232 -11 l-193 0 0 280 0 280 183 0 c136 0 197 -4
235 -15z"/>
<path d="M10967 3133 l254 -638 -3 -462 -3 -463 142 0 143 0 0 468 0 469 246
609 c135 335 250 619 255 632 l9 22 -163 0 -162 0 -144 -403 c-80 -221 -152
-420 -161 -441 l-16 -39 -164 442 -164 441 -162 0 -161 0 254 -637z"/>
<path d="M12160 2670 l0 -1100 495 0 495 0 -2 188 -3 187 -352 3 -353 2 0 910
0 910 -140 0 -140 0 0 -1100z"/>
<path d="M13046 3748 c3 -13 116 -297 250 -633 l244 -610 0 -467 0 -468 140 0
140 0 0 465 0 466 251 621 c138 341 253 627 256 634 4 12 -21 14 -157 12
l-163 -3 -156 -432 c-86 -237 -158 -434 -161 -437 -3 -2 -68 165 -144 372 -77
208 -151 405 -164 440 l-24 62 -160 0 -159 0 7 -22z"/>
<path d="M14810 3753 c-213 -58 -328 -238 -346 -542 -5 -86 -2 -125 14 -205
24 -114 80 -239 137 -304 70 -81 199 -155 336 -195 168 -49 258 -116 298 -221
25 -68 26 -105 5 -175 -31 -106 -140 -181 -262 -181 -77 0 -126 17 -179 63
-77 69 -123 167 -123 264 l0 43 -139 0 c-161 0 -150 8 -158 -112 -20 -272 172
-532 444 -602 76 -20 230 -20 303 -1 152 40 271 137 340 278 61 124 75 190 75
347 0 126 -3 144 -38 268 -20 73 -44 146 -52 161 -8 16 -46 58 -84 93 -59 53
-105 81 -296 177 -290 146 -355 201 -355 300 0 53 15 89 53 129 86 90 223 102
319 29 49 -38 91 -116 107 -198 l12 -59 138 0 139 0 7 68 c19 197 -75 397
-241 510 -100 68 -323 100 -454 65z"/>
<path d="M11960 781 c0 -10 9 -29 19 -42 16 -19 29 -24 69 -24 57 0 92 23 92
62 0 32 -33 31 -48 -2 -8 -17 -20 -25 -36 -25 -24 0 -56 23 -56 41 0 5 -9 9
-20 9 -13 0 -20 -7 -20 -19z"/>
<path d="M1959 690 c-81 -24 -114 -84 -114 -205 0 -124 44 -182 146 -191 75
-7 135 23 167 86 29 59 31 175 2 238 -30 66 -118 98 -201 72z m110 -45 c54
-27 80 -160 47 -239 -31 -75 -116 -100 -175 -51 -69 59 -62 238 11 289 28 20
80 20 117 1z"/>
<path d="M2670 687 c-24 -8 -36 -19 -38 -34 -4 -26 3 -28 38 -8 32 18 81 19
105 1 13 -9 19 -26 19 -51 0 -50 -30 -75 -90 -75 -37 0 -44 -3 -44 -20 0 -17
7 -20 40 -20 54 0 87 -17 99 -52 11 -32 1 -63 -28 -85 -22 -17 -80 -16 -111 2
-35 20 -42 18 -38 -7 4 -32 68 -53 131 -44 66 10 98 40 104 99 5 43 3 49 -28
79 l-34 33 28 27 c29 29 37 81 16 120 -22 42 -101 58 -169 35z"/>
<path d="M3369 690 c-81 -24 -114 -84 -114 -205 0 -124 44 -182 146 -191 75
-7 135 23 167 86 29 59 31 175 2 238 -30 66 -118 98 -201 72z m110 -45 c54
-27 80 -160 47 -239 -31 -75 -116 -100 -175 -51 -69 59 -62 238 11 289 28 20
80 20 117 1z"/>
<path d="M4135 686 c-94 -41 -137 -200 -82 -306 28 -55 59 -78 118 -86 59 -8
139 24 139 55 0 26 -2 26 -42 1 -113 -69 -210 40 -177 198 21 102 95 141 175
92 33 -21 49 -15 38 13 -7 19 -75 47 -112 47 -15 -1 -41 -7 -57 -14z"/>
<path d="M5099 690 c-81 -24 -114 -84 -114 -205 0 -124 44 -182 146 -191 75
-7 135 23 167 86 29 59 31 175 2 238 -30 66 -118 98 -201 72z m110 -45 c54
-27 80 -160 47 -239 -31 -75 -116 -100 -175 -51 -69 59 -62 238 11 289 28 20
80 20 117 1z"/>
<path d="M6869 690 c-81 -24 -114 -84 -114 -205 0 -124 44 -182 146 -191 75
-7 135 23 167 86 29 59 31 175 2 238 -30 66 -118 98 -201 72z m110 -45 c54
-27 80 -160 47 -239 -31 -75 -116 -100 -175 -51 -69 59 -62 238 11 289 28 20
80 20 117 1z"/>
<path d="M9579 690 c-81 -24 -114 -84 -114 -205 0 -124 44 -182 146 -191 75
-7 135 23 167 86 29 59 31 175 2 238 -30 66 -118 98 -201 72z m110 -45 c54
-27 80 -160 47 -239 -31 -75 -116 -100 -175 -51 -69 59 -62 238 11 289 28 20
80 20 117 1z"/>
<path d="M11599 690 c-81 -24 -114 -84 -114 -205 0 -124 44 -182 146 -191 75
-7 135 23 167 86 29 59 31 175 2 238 -30 66 -118 98 -201 72z m110 -45 c54
-27 80 -160 47 -239 -31 -75 -116 -100 -175 -51 -69 59 -62 238 11 289 28 20
80 20 117 1z"/>
<path d="M1167 684 c-4 -4 -7 -92 -7 -196 l0 -188 25 0 25 0 0 175 0 175 90 0
90 0 0 -176 0 -175 23 3 c22 3 22 4 22 193 l0 190 -131 3 c-71 1 -133 -1 -137
-4z"/>
<path d="M1547 683 c-4 -3 -7 -91 -7 -195 l0 -188 25 0 c24 0 25 2 25 74 l0
73 56 6 c30 3 67 13 81 22 27 18 53 71 53 107 0 41 -36 86 -77 97 -42 12 -146
15 -156 4z m153 -53 c28 -28 27 -87 -2 -117 -16 -17 -32 -23 -65 -23 l-43 0 0
80 0 80 45 0 c32 0 51 -6 65 -20z"/>
<path d="M2267 683 c-4 -3 -7 -91 -7 -195 l0 -189 23 3 c16 2 48 42 117 145
l95 142 3 -144 3 -145 24 0 25 0 0 195 c0 253 -1 253 -137 49 l-98 -147 -3
147 c-2 133 -4 146 -21 146 -10 0 -21 -3 -24 -7z"/>
<path d="M2944 677 c-2 -7 -3 -94 -2 -192 l3 -180 55 -3 c134 -8 190 24 190
108 0 36 -5 52 -23 68 -13 12 -30 22 -38 22 -11 1 -11 3 2 13 37 28 50 88 28
129 -6 11 -26 26 -44 34 -44 18 -164 19 -171 1z m156 -47 c47 -47 10 -110 -65
-110 l-45 0 0 65 0 65 45 0 c32 0 51 -6 65 -20z m20 -170 c12 -12 20 -33 20
-54 0 -47 -29 -66 -97 -66 l-53 0 0 70 0 70 55 0 c42 0 60 -5 75 -20z"/>
<path d="M3726 658 c-40 -258 -58 -318 -95 -318 -19 0 -21 -6 -21 -70 0 -63 2
-70 20 -70 17 0 20 7 20 50 l0 50 150 0 150 0 0 -50 c0 -43 3 -50 20 -50 18 0
20 7 20 70 0 68 -1 70 -25 70 l-25 0 -2 173 -3 172 -102 3 -102 3 -5 -33z
m164 -163 l0 -155 -94 0 -93 0 18 38 c18 37 49 189 49 243 0 29 1 29 60 29
l60 0 0 -155z"/>
<path d="M4330 670 c0 -18 7 -20 55 -20 l55 0 2 -172 c3 -171 3 -173 26 -176
l22 -3 0 175 0 176 60 0 c53 0 60 2 60 20 0 19 -7 20 -140 20 -133 0 -140 -1
-140 -20z"/>
<path d="M4674 677 c-2 -7 -3 -94 -2 -192 l3 -180 55 -3 c134 -8 190 24 190
108 0 36 -5 52 -23 68 -13 12 -30 22 -38 22 -11 1 -11 3 2 13 37 28 50 88 28
129 -6 11 -26 26 -44 34 -44 18 -164 19 -171 1z m156 -47 c47 -47 10 -110 -65
-110 l-45 0 0 65 0 65 45 0 c32 0 51 -6 65 -20z m20 -170 c12 -12 20 -33 20
-54 0 -47 -29 -66 -97 -66 l-53 0 0 70 0 70 55 0 c42 0 60 -5 75 -20z"/>
<path d="M5547 683 c-4 -3 -7 -91 -7 -195 l0 -189 23 3 c16 2 48 42 117 145
l95 142 3 -144 3 -145 24 0 25 0 0 195 c0 253 -1 253 -137 49 l-98 -147 -3
147 c-2 133 -4 146 -21 146 -10 0 -21 -3 -24 -7z"/>
<path d="M6077 684 c-4 -4 -7 -92 -7 -196 l0 -188 25 0 25 0 0 175 0 175 90 0
90 0 0 -176 0 -175 23 3 c22 3 22 4 22 193 l0 190 -131 3 c-71 1 -133 -1 -137
-4z"/>
<path d="M6457 683 c-4 -3 -7 -91 -7 -195 l0 -188 25 0 c24 0 25 2 25 74 l0
73 56 6 c30 3 67 13 81 22 27 18 53 71 53 107 0 41 -36 86 -77 97 -42 12 -146
15 -156 4z m153 -53 c28 -28 27 -87 -2 -117 -16 -17 -32 -23 -65 -23 l-43 0 0
80 0 80 45 0 c32 0 51 -6 65 -20z"/>
<path d="M7226 658 c-40 -258 -58 -318 -95 -318 -19 0 -21 -6 -21 -70 0 -63 2
-70 20 -70 17 0 20 7 20 50 l0 50 150 0 150 0 0 -50 c0 -43 3 -50 20 -50 18 0
20 7 20 70 0 68 -1 70 -25 70 l-25 0 -2 173 -3 172 -102 3 -102 3 -5 -33z
m164 -163 l0 -155 -94 0 -93 0 18 38 c18 37 49 189 49 243 0 29 1 29 60 29
l60 0 0 -155z"/>
<path d="M7636 658 c-17 -40 -126 -347 -126 -353 0 -3 11 -5 24 -5 20 0 27 9
42 50 l18 50 81 0 80 0 18 -50 c15 -42 22 -50 42 -50 14 0 25 3 25 8 0 4 -30
91 -66 195 -66 185 -67 187 -96 187 -23 0 -32 -6 -42 -32z m70 -110 c15 -46
29 -89 32 -95 3 -10 -13 -13 -63 -13 -50 0 -66 3 -63 13 3 6 17 49 32 95 15
45 29 82 31 82 2 0 16 -37 31 -82z"/>
<path d="M7880 675 c0 -31 43 -131 65 -152 l24 -21 -24 -16 c-22 -15 -60 -97
-72 -159 -5 -26 -3 -28 18 -25 19 2 28 17 50 76 30 80 49 101 92 102 l27 0 0
-90 c0 -89 0 -90 25 -90 25 0 25 1 25 90 0 89 0 90 24 90 39 0 72 -39 96 -112
19 -59 25 -68 46 -68 13 0 24 6 24 13 0 31 -48 143 -71 167 -25 25 -26 27 -9
38 17 10 50 85 66 147 5 22 3 25 -19 25 -22 0 -27 -8 -46 -70 -22 -72 -47
-100 -88 -100 -22 0 -23 3 -23 85 0 84 0 85 -25 85 -25 0 -25 -1 -25 -85 l0
-85 -29 0 c-38 0 -62 30 -86 109 -15 52 -22 61 -42 61 -13 0 -23 -6 -23 -15z"/>
<path d="M8466 658 c-17 -40 -126 -347 -126 -353 0 -3 11 -5 24 -5 20 0 27 9
42 50 l18 50 81 0 80 0 18 -50 c15 -42 22 -50 42 -50 14 0 25 3 25 8 0 4 -30
91 -66 195 -66 185 -67 187 -96 187 -23 0 -32 -6 -42 -32z m70 -110 c15 -46
29 -89 32 -95 3 -10 -13 -13 -63 -13 -50 0 -66 3 -63 13 3 6 17 49 32 95 15
45 29 82 31 82 2 0 16 -37 31 -82z"/>
<path d="M8830 670 c0 -18 7 -20 55 -20 l55 0 2 -172 c3 -171 3 -173 26 -176
l22 -3 0 175 0 176 60 0 c53 0 60 2 60 20 0 19 -7 20 -140 20 -133 0 -140 -1
-140 -20z"/>
<path d="M9177 683 c-4 -3 -7 -91 -7 -195 l0 -188 25 0 c24 0 25 2 25 74 l0
73 56 6 c30 3 67 13 81 22 27 18 53 71 53 107 0 41 -36 86 -77 97 -42 12 -146
15 -156 4z m153 -53 c28 -28 27 -87 -2 -117 -16 -17 -32 -23 -65 -23 l-43 0 0
80 0 80 45 0 c32 0 51 -6 65 -20z"/>
<path d="M9830 670 c0 -18 7 -20 55 -20 l55 0 2 -172 c3 -171 3 -173 26 -176
l22 -3 0 175 0 176 60 0 c53 0 60 2 60 20 0 19 -7 20 -140 20 -133 0 -140 -1
-140 -20z"/>
<path d="M10140 680 c0 -6 29 -72 65 -147 36 -75 65 -144 65 -153 0 -28 -36
-53 -65 -46 -20 5 -25 3 -25 -14 0 -42 88 -38 117 6 21 32 143 332 143 351 0
9 -8 13 -22 11 -19 -2 -31 -24 -70 -123 l-47 -120 -57 123 c-50 104 -61 122
-81 122 -13 0 -23 -5 -23 -10z"/>
<path d="M10536 658 c-17 -40 -126 -347 -126 -353 0 -3 11 -5 24 -5 20 0 27 9
42 50 l18 50 81 0 80 0 18 -50 c15 -42 22 -50 42 -50 14 0 25 3 25 8 0 4 -30
91 -66 195 -66 185 -67 187 -96 187 -23 0 -32 -6 -42 -32z m70 -110 c15 -46
29 -89 32 -95 3 -10 -13 -13 -63 -13 -50 0 -66 3 -63 13 3 6 17 49 32 95 15
45 29 82 31 82 2 0 16 -37 31 -82z"/>
<path d="M10807 683 c-4 -3 -7 -91 -7 -195 l0 -188 25 0 c24 0 25 2 25 74 l0
73 56 6 c30 3 67 13 81 22 27 18 53 71 53 107 0 41 -36 86 -77 97 -42 12 -146
15 -156 4z m153 -53 c28 -28 27 -87 -2 -117 -16 -17 -32 -23 -65 -23 l-43 0 0
80 0 80 45 0 c32 0 51 -6 65 -20z"/>
<path d="M11120 495 l0 -195 25 0 c25 0 25 1 25 90 l0 90 90 0 90 0 0 -90 c0
-89 0 -90 25 -90 l25 0 0 195 0 195 -25 0 c-25 0 -25 -1 -25 -85 l0 -85 -90 0
-90 0 0 85 c0 84 0 85 -25 85 l-25 0 0 -195z"/>
<path d="M11900 495 c0 -252 0 -252 140 -48 l100 147 0 -147 0 -147 25 0 25 0
0 195 c0 253 -1 253 -137 49 l-98 -147 -3 147 -3 146 -24 0 -25 0 0 -195z"/>
<path d="M12437 684 c-4 -4 -7 -92 -7 -196 l0 -188 25 0 25 0 0 175 0 175 90
0 90 0 0 -176 0 -175 23 3 c22 3 22 4 22 193 l0 190 -131 3 c-71 1 -133 -1
-137 -4z"/>
<path d="M12876 678 c-2 -7 -11 -69 -20 -138 -18 -134 -38 -189 -73 -205 -13
-5 -23 -18 -23 -29 0 -16 5 -17 32 -12 65 13 87 59 115 242 l17 114 53 0 53 0
0 -175 0 -175 25 0 25 0 -2 193 -3 192 -98 3 c-73 2 -98 -1 -101 -10z"/>
<path d="M13187 683 c-4 -3 -7 -91 -7 -195 l0 -189 23 3 c16 2 48 42 117 145
l95 142 3 -144 3 -145 24 0 25 0 0 195 c0 253 -1 253 -137 49 l-98 -147 -3
147 c-2 133 -4 146 -21 146 -10 0 -21 -3 -24 -7z"/>
<path d="M13540 670 c0 -18 7 -20 55 -20 l55 0 2 -172 c3 -171 3 -173 26 -176
l22 -3 0 175 0 176 60 0 c53 0 60 2 60 20 0 19 -7 20 -140 20 -133 0 -140 -1
-140 -20z"/>
<path d="M13874 677 c-2 -7 -3 -94 -2 -192 3 -178 3 -180 26 -183 21 -3 22 -1
22 87 l0 91 29 0 c43 0 68 -27 100 -105 27 -67 50 -90 72 -68 13 13 -47 145
-80 174 l-29 27 23 10 c15 7 31 33 49 79 32 84 32 95 4 91 -18 -2 -28 -16 -44
-62 -27 -76 -53 -106 -93 -106 l-31 0 0 85 c0 79 -1 85 -20 85 -11 0 -23 -6
-26 -13z"/>
<path d="M14207 683 c-4 -3 -7 -91 -7 -195 l0 -189 23 3 c16 2 48 42 117 145
l95 142 3 -144 3 -145 24 0 25 0 0 195 c0 253 -1 253 -137 49 l-98 -147 -3
147 c-2 133 -4 146 -21 146 -10 0 -21 -3 -24 -7z"/>
</g>
</svg>
