<?xml version="1.0" standalone="no"?>
<!DOCTYPE svg PUBLIC "-//W3C//DTD SVG 20010904//EN"
 "http://www.w3.org/TR/2001/REC-SVG-20010904/DTD/svg10.dtd">
<svg version="1.0" xmlns="http://www.w3.org/2000/svg"
 width="100.000000pt" height="100.000000pt" viewBox="0 0 100.000000 100.000000"
 preserveAspectRatio="xMidYMid meet">

<g transform="translate(0.000000,100.000000) scale(0.100000,-0.100000)"
fill="#000000" stroke="none">
<path d="M598 943 c-36 -15 -38 -17 -35 -62 l2 -46 -45 3 c-44 2 -45 1 -61
-37 l-17 -39 37 -31 36 -30 -24 -21 c-13 -12 -31 -24 -38 -29 -12 -6 -12 -14
2 -49 17 -41 18 -42 64 -39 l46 2 -3 -34 c-1 -19 -5 -37 -7 -40 -3 -2 -21 10
-39 28 l-34 33 -31 -21 c-44 -32 -64 -24 -75 27 l-9 42 -47 0 -47 0 -9 -42
c-11 -51 -31 -59 -75 -27 l-31 22 -35 -35 -35 -36 22 -30 c32 -43 24 -65 -28
-75 l-42 -8 0 -49 0 -49 42 -8 c51 -10 59 -30 27 -74 l-22 -31 36 -35 35 -36
31 22 c36 26 64 24 69 -4 10 -65 10 -65 60 -65 l48 0 10 42 c11 51 31 59 75
27 l31 -22 35 36 36 35 -27 34 c-31 42 -21 62 37 72 37 7 37 7 37 56 l0 48
-40 7 c-55 9 -65 30 -33 71 l24 32 42 -19 42 -19 25 30 c23 27 60 41 60 23 0
-5 8 -18 18 -31 18 -23 19 -23 59 -7 40 16 41 17 40 63 l-2 47 45 -3 c44 -2
45 -1 62 38 l17 41 -34 22 c-44 28 -44 41 -1 69 l34 22 -16 42 c-15 41 -16 42
-61 40 l-46 -1 3 43 c2 40 1 44 -32 57 -48 20 -52 19 -73 -15 -23 -40 -46 -38
-69 5 -10 19 -21 35 -24 34 -3 -1 -22 -8 -42 -16z m47 -63 c13 -26 21 -30 55
-30 34 0 42 4 55 30 20 38 39 29 32 -15 -8 -46 35 -88 80 -79 42 8 50 -11 13
-32 -25 -15 -30 -25 -30 -56 0 -30 5 -40 29 -54 39 -23 31 -45 -12 -33 -27 8
-35 5 -59 -18 -24 -23 -27 -32 -22 -65 8 -45 -7 -51 -32 -13 -24 36 -85 35
-112 -2 -24 -33 -46 -23 -37 19 10 43 -27 80 -74 76 -44 -4 -51 15 -13 37 24
15 29 24 29 56 0 22 -2 39 -6 39 -3 0 -16 8 -28 18 -32 24 -17 45 24 33 44
-13 77 22 71 73 -3 30 0 39 19 45 1 1 9 -12 18 -29z m-303 -352 c2 -27 10 -37
40 -51 37 -18 38 -18 64 2 20 16 30 18 40 10 11 -9 10 -16 -7 -40 -19 -28 -20
-32 -6 -67 13 -32 20 -37 51 -40 27 -2 36 -8 36 -21 0 -14 -10 -20 -38 -25
-32 -5 -40 -11 -51 -42 -12 -33 -11 -39 8 -64 16 -23 18 -30 7 -39 -10 -8 -20
-6 -39 9 -25 20 -27 20 -64 3 -28 -14 -39 -26 -43 -48 -6 -35 -40 -49 -40 -17
0 36 -12 52 -47 67 -32 14 -37 13 -62 -5 -39 -27 -58 -8 -31 31 18 25 19 30 5
62 -14 35 -31 47 -66 47 -12 0 -19 7 -19 20 0 13 7 20 19 20 35 0 52 12 66 47
14 32 13 37 -5 63 -16 23 -17 30 -6 39 10 8 19 6 39 -9 25 -20 27 -20 64 -3
31 15 39 24 41 51 2 23 8 32 22 32 14 0 20 -9 22 -32z"/>
<path d="M651 786 c-87 -48 -50 -186 49 -186 51 0 100 49 100 99 0 75 -83 124
-149 87z m89 -46 c11 -11 20 -29 20 -40 0 -11 -9 -29 -20 -40 -11 -11 -29 -20
-40 -20 -11 0 -29 9 -40 20 -11 11 -20 29 -20 40 0 11 9 29 20 40 11 11 29 20
40 20 11 0 29 -9 40 -20z"/>
<path d="M271 406 c-87 -48 -50 -186 49 -186 51 0 100 49 100 99 0 75 -83 124
-149 87z m89 -46 c11 -11 20 -29 20 -40 0 -26 -34 -60 -60 -60 -26 0 -60 34
-60 60 0 11 9 29 20 40 11 11 29 20 40 20 11 0 29 -9 40 -20z"/>
</g>
</svg>
