<?xml version="1.0" standalone="no"?>
<!DOCTYPE svg PUBLIC "-//W3C//DTD SVG 20010904//EN"
 "http://www.w3.org/TR/2001/REC-SVG-20010904/DTD/svg10.dtd">
<svg version="1.0" xmlns="http://www.w3.org/2000/svg"
 width="100.000000pt" height="100.000000pt" viewBox="0 0 100.000000 100.000000"
 preserveAspectRatio="xMidYMid meet">

<g transform="translate(0.000000,100.000000) scale(0.100000,-0.100000)"
fill="#000000" stroke="none">
<path d="M140 902 c-55 -27 -81 -75 -78 -142 l3 -55 57 -3 58 -3 2 -307 3
-307 148 -3 c142 -2 147 -2 147 18 0 19 -6 20 -130 20 l-130 0 0 290 0 290
198 2 197 3 6 55 c7 71 15 88 50 105 35 19 62 19 98 1 49 -26 51 -41 51 -406
l0 -340 -50 0 c-44 0 -50 -3 -50 -20 0 -19 5 -21 68 -18 l67 3 3 360 c2 402 2
406 -67 452 -33 23 -39 23 -325 23 -257 0 -295 -2 -326 -18z m459 -59 c-10
-21 -19 -52 -19 -70 l0 -33 -240 0 -240 0 0 33 c1 17 7 43 14 56 26 47 46 50
282 51 l222 0 -19 -37z"/>
<path d="M320 620 c0 -19 7 -20 200 -20 193 0 200 1 200 20 0 19 -7 20 -200
20 -193 0 -200 -1 -200 -20z"/>
<path d="M320 500 c0 -19 7 -20 200 -20 193 0 200 1 200 20 0 19 -7 20 -200
20 -193 0 -200 -1 -200 -20z"/>
<path d="M570 390 c-8 -5 -23 -11 -33 -14 -9 -3 -20 -14 -24 -23 -3 -10 -13
-26 -20 -35 -12 -14 -13 -26 -4 -68 6 -28 11 -89 11 -135 0 -48 4 -87 11 -90
5 -4 28 5 50 20 l39 28 39 -28 c22 -15 45 -24 50 -20 7 3 11 42 11 90 0 46 5
107 11 135 9 42 8 54 -4 68 -7 9 -17 25 -20 35 -4 9 -15 20 -24 23 -10 3 -26
10 -35 15 -21 11 -38 11 -58 -1z m45 -40 c3 -5 15 -10 26 -10 11 0 18 -4 14
-9 -3 -5 1 -16 8 -23 17 -17 10 -78 -9 -78 -7 0 -17 -6 -21 -12 -4 -7 -19 -13
-33 -13 -14 0 -29 6 -33 13 -4 6 -14 12 -21 12 -19 0 -26 61 -9 78 7 7 11 18
8 23 -4 5 3 9 14 9 11 0 23 5 26 10 3 6 10 10 15 10 5 0 12 -4 15 -10z m45
-227 l0 -44 -30 23 -30 22 -30 -22 -30 -23 0 44 0 43 60 0 60 0 0 -43z"/>
</g>
</svg>
