<?xml version="1.0" standalone="no"?>
<!DOCTYPE svg PUBLIC "-//W3C//DTD SVG 20010904//EN"
 "http://www.w3.org/TR/2001/REC-SVG-20010904/DTD/svg10.dtd">
<svg version="1.0" xmlns="http://www.w3.org/2000/svg"
 width="100.000000pt" height="100.000000pt" viewBox="0 0 100.000000 100.000000"
 preserveAspectRatio="xMidYMid meet">

<g transform="translate(0.000000,100.000000) scale(0.100000,-0.100000)"
fill="#000000" stroke="none">
<path d="M421 980 c-28 -13 -65 -20 -107 -20 l-64 0 6 -27 c2 -16 13 -73 23
-127 l19 -99 -65 -76 c-160 -188 -195 -392 -89 -518 l28 -33 328 0 328 0 28
33 c106 126 71 330 -89 518 l-65 76 19 99 c10 54 21 111 23 127 l6 27 -64 0
c-42 0 -79 7 -107 20 -24 11 -60 20 -79 20 -19 0 -55 -9 -79 -20z m148 -92
c13 -10 37 -18 53 -18 21 0 29 -4 25 -14 -3 -7 -9 -34 -12 -60 l-7 -46 -128 0
-128 0 -7 46 c-3 26 -9 53 -12 60 -4 10 4 14 25 14 16 0 40 8 53 19 44 34 93
34 138 -1z m112 -288 c91 -96 141 -192 147 -285 3 -50 0 -81 -11 -108 l-16
-37 -140 0 c-120 0 -141 2 -141 15 0 9 10 19 23 24 52 20 76 78 57 136 -9 26
-26 45 -66 70 -49 31 -54 38 -54 70 0 29 4 35 21 35 13 0 23 -10 30 -30 9 -24
17 -30 40 -30 17 0 32 6 35 14 8 22 -24 81 -51 96 -14 7 -25 24 -27 39 -4 38
-38 42 -38 4 0 -23 -6 -31 -30 -40 -43 -16 -64 -70 -50 -124 9 -32 21 -46 64
-74 52 -33 66 -53 58 -87 -8 -40 -55 -28 -66 17 -5 20 -13 25 -37 25 -37 0
-44 -18 -25 -65 10 -24 26 -40 46 -48 18 -7 30 -19 30 -29 0 -16 -12 -18 -141
-18 l-140 0 -16 37 c-11 27 -14 58 -11 108 6 94 57 191 148 286 l67 69 114 0
114 0 66 -70z"/>
</g>
</svg>
