<?xml version="1.0" standalone="no"?>
<!DOCTYPE svg PUBLIC "-//W3C//DTD SVG 20010904//EN"
 "http://www.w3.org/TR/2001/REC-SVG-20010904/DTD/svg10.dtd">
<svg version="1.0" xmlns="http://www.w3.org/2000/svg"
 width="100.000000pt" height="100.000000pt" viewBox="0 0 100.000000 100.000000"
 preserveAspectRatio="xMidYMid meet">

<g transform="translate(0.000000,100.000000) scale(0.100000,-0.100000)"
fill="#000000" stroke="none">
<path d="M512 887 c-39 -40 -72 -78 -72 -85 0 -12 42 -79 85 -138 16 -21 13
-25 -62 -102 -101 -103 -195 -187 -308 -274 -96 -75 -114 -97 -115 -142 0 -39
67 -106 106 -106 44 1 65 18 139 110 114 142 257 300 283 313 14 6 33 25 42
41 21 39 32 41 66 13 42 -34 111 -77 127 -77 7 0 45 33 86 74 84 84 83 80 16
177 -41 59 -43 65 -28 77 16 11 12 18 -40 70 -50 50 -59 55 -68 40 -9 -15 -18
-12 -86 32 -41 28 -81 50 -87 50 -6 0 -44 -33 -84 -73z m155 7 c79 -50 166
-136 219 -215 24 -37 44 -70 44 -75 0 -13 -123 -134 -136 -134 -17 0 -124 77
-178 128 -50 49 -146 177 -146 196 0 12 121 136 133 136 4 0 33 -16 64 -36z
m183 -112 c-15 -5 -70 48 -70 67 0 9 15 0 40 -24 23 -22 36 -41 30 -43z m-238
-234 c-18 -18 -77 39 -60 59 9 12 17 9 42 -16 24 -24 28 -33 18 -43z m-63 -2
c48 -50 30 -68 -20 -20 -34 33 -42 54 -20 54 4 0 22 -15 40 -34z m-35 -35 l28
-30 -94 -104 c-51 -57 -129 -148 -172 -201 -43 -54 -89 -103 -103 -109 -30
-13 -65 3 -96 45 -33 45 -18 68 111 172 64 51 155 130 202 174 47 45 88 81 91
82 3 0 18 -13 33 -29z"/>
</g>
</svg>
