<?xml version="1.0" standalone="no"?>
<!DOCTYPE svg PUBLIC "-//W3C//DTD SVG 20010904//EN"
 "http://www.w3.org/TR/2001/REC-SVG-20010904/DTD/svg10.dtd">
<svg version="1.0" xmlns="http://www.w3.org/2000/svg"
 width="100.000000pt" height="100.000000pt" viewBox="0 0 100.000000 100.000000"
 preserveAspectRatio="xMidYMid meet">

<g transform="translate(0.000000,100.000000) scale(0.100000,-0.100000)"
fill="#000000" stroke="none">
<path d="M465 885 c-24 -20 -39 -24 -79 -22 l-49 2 -14 -41 c-12 -37 -19 -43
-59 -54 -33 -9 -43 -17 -40 -29 18 -69 18 -73 -15 -107 l-33 -34 31 -38 c29
-35 31 -43 23 -78 -13 -52 -12 -54 5 -54 25 0 18 -17 -41 -101 -31 -44 -55
-81 -53 -83 2 -1 39 -10 82 -20 l78 -18 45 -69 c24 -38 45 -69 47 -69 2 0 26
31 53 70 27 38 52 70 56 70 4 0 28 -31 55 -70 26 -38 50 -69 53 -70 3 0 25 32
50 70 l45 69 78 17 c42 9 77 21 77 26 0 6 -25 44 -55 86 -46 64 -53 79 -41 88
12 8 13 19 5 54 -9 41 -8 45 22 76 l31 32 -30 39 c-29 35 -30 41 -22 78 5 22
10 43 10 46 0 4 -20 12 -45 19 -42 12 -46 16 -56 56 -12 47 -14 48 -71 35 -33
-8 -39 -6 -64 20 -33 35 -40 35 -79 4z m61 -76 c14 -15 28 -20 58 -17 38 3 41
1 49 -29 6 -18 13 -33 18 -33 4 0 19 -4 32 -9 23 -9 24 -13 17 -45 -6 -29 -4
-38 16 -57 l23 -21 -22 -30 c-14 -19 -20 -40 -19 -62 3 -30 0 -35 -28 -44 -21
-8 -34 -21 -42 -42 -10 -30 -13 -31 -45 -25 -28 5 -40 2 -59 -16 l-23 -21 -27
21 c-21 16 -35 20 -61 15 -31 -6 -34 -4 -44 26 -8 22 -23 37 -45 46 -31 13
-32 16 -23 46 8 28 5 36 -16 58 l-25 26 24 23 c20 18 23 29 19 61 -5 36 -4 38
25 45 24 5 34 14 42 41 11 32 13 34 48 28 30 -5 41 -2 56 15 24 26 28 26 52 0z
m202 -469 c17 -27 32 -52 32 -54 0 -3 -20 -8 -45 -12 -40 -5 -50 -12 -76 -51
l-31 -45 -39 54 c-21 29 -39 56 -39 59 0 3 9 14 19 23 17 15 27 16 65 8 l46
-10 12 39 c6 22 14 39 17 39 3 0 21 -23 39 -50z m-403 9 c7 -31 7 -31 57 -25
40 6 54 3 69 -10 11 -9 19 -21 19 -26 0 -16 -73 -109 -79 -101 -4 4 -19 24
-34 45 -20 27 -36 38 -67 43 -22 4 -40 11 -40 16 0 14 51 89 61 89 4 0 10 -14
14 -31z"/>
</g>
</svg>
